# xmcd CD database file
#
# Track frame offsets:
#	150
#	18780
#	36385
#	55742
#	79603
#	96017
#	115063
#	132321
#	151646
#	170122
#	183159
#	202333
#	220516
#	240410
#
# Disc length: 3369 seconds
#
# Revision: 0
# Processed by: cddbd v1.5.1PL0 Copyright (c) Steve Scherf et al.
# Submitted via: CDex 1.51
#
DISCID=ae0d270e
DTITLE=Grady Keystone - Jump the Fence
DYEAR=1997
DGENRE=Country
TTITLE0=Daddy Is a Wrangler
TTITLE1=I'll Be Busy
TTITLE2=Beulah
TTITLE3=Johnny McKay
TTITLE4=Jump the Fence
TTITLE5=Minnie
TTITLE6=Don't Block My Love
TTITLE7=Big Enough
TTITLE8=River of No Return
TTITLE9=Promise of the Spring
TTITLE10=Silverheels
TTITLE11=Lizzie King
TTITLE12=Sometimes I Can't 
TTITLE13=A Little Thing Like Texas
EXTD=YEAR: 1997
EXTT0=
EXTT1=
EXTT2=
EXTT3=
EXTT4=
EXTT5=
EXTT6=
EXTT7=
EXTT8=
EXTT9=
EXTT10=
EXTT11=
EXTT12=
EXTT13=
PLAYORDER=
